HIERARCHY
ROOT Hips
{
	OFFSET 0.00000 0.00000 0.00000
	CHANNELS 6 Xposition Yposition Zposition Zrotation Yrotation Xrotation 
	JOINT LHipJoint
	{
		OFFSET 0 0 0
		CHANNELS 3 Zrotation Yrotation Xrotation
		JOINT LeftUpLeg
		{
			OFFSET 1.57338 -1.94743 0.52196
			CHANNELS 3 Zrotation Yrotation Xrotation
			JOINT LeftLeg
			{
				OFFSET 2.60333 -7.15259 0.00000
				CHANNELS 3 Zrotation Yrotation Xrotation
				JOINT LeftFoot
				{
					OFFSET 2.77855 -7.63400 0.00000
					CHANNELS 3 Zrotation Yrotation Xrotation
					JOINT LeftToeBase
					{
						OFFSET 0.19847 -0.54529 2.28466
						CHANNELS 3 Zrotation Yrotation Xrotation
						End Site
						{
							OFFSET 0.00000 -0.00000 1.17993
						}
					}
				}
			}
		}
	}
	JOINT RHipJoint
	{
		OFFSET 0 0 0
		CHANNELS 3 Zrotation Yrotation Xrotation
		JOINT RightUpLeg
		{
			OFFSET -1.61527 -1.94743 0.52196
			CHANNELS 3 Zrotation Yrotation Xrotation
			JOINT RightLeg
			{
				OFFSET -2.53829 -6.97390 0.00000
				CHANNELS 3 Zrotation Yrotation Xrotation
				JOINT RightFoot
				{
					OFFSET -2.80762 -7.71387 0.00000
					CHANNELS 3 Zrotation Yrotation Xrotation
					JOINT RightToeBase
					{
						OFFSET -0.30536 -0.83898 2.28801
						CHANNELS 3 Zrotation Yrotation Xrotation
						End Site
						{
							OFFSET -0.00000 -0.00000 1.21323
						}
					}
				}
			}
		}
	}
	JOINT LowerBack
	{
		OFFSET 0 0 0
		CHANNELS 3 Zrotation Yrotation Xrotation
		JOINT Spine
		{
			OFFSET -0.04381 1.99497 -0.19778
			CHANNELS 3 Zrotation Yrotation Xrotation
			JOINT Spine1
			{
				OFFSET -0.01959 2.01295 -0.04372
				CHANNELS 3 Zrotation Yrotation Xrotation
				JOINT Neck
				{
					OFFSET 0 0 0
					CHANNELS 3 Zrotation Yrotation Xrotation
					JOINT Neck1
					{
						OFFSET -0.05459 1.76913 0.09708
						CHANNELS 3 Zrotation Yrotation Xrotation
						JOINT Head
						{
							OFFSET 0.09461 1.77368 -0.11172
							CHANNELS 3 Zrotation Yrotation Xrotation
							End Site
							{
								OFFSET 0.03812 1.78157 -0.04834
							}
						}
					}
				}
				JOINT LeftShoulder
				{
					OFFSET 0 0 0
					CHANNELS 3 Zrotation Yrotation Xrotation
					JOINT LeftArm
					{
						OFFSET 3.50922 1.24034 -0.28866
						CHANNELS 3 Zrotation Yrotation Xrotation
						JOINT LeftForeArm
						{
							OFFSET 5.40188 -0.00000 0.00000
							CHANNELS 3 Zrotation Yrotation Xrotation
							JOINT LeftHand
							{
								OFFSET 3.68559 -0.00000 0.00000
								CHANNELS 3 Zrotation Yrotation Xrotation
								JOINT LeftFingerBase
								{
									OFFSET 0 0 0
									CHANNELS 3 Zrotation Yrotation Xrotation
									JOINT LeftHandIndex1
									{
										OFFSET 0.61753 -0.00000 0.00000
										CHANNELS 3 Zrotation Yrotation Xrotation
										End Site
										{
											OFFSET 0.49787 -0.00000 0.00000
										}
									}
								}
								JOINT LThumb
								{
									OFFSET 0 0 0
									CHANNELS 3 Zrotation Yrotation Xrotation
									End Site
									{
										OFFSET 0.50547 -0.00000 0.50547
									}
								}
							}
						}
					}
				}
				JOINT RightShoulder
				{
					OFFSET 0 0 0
					CHANNELS 3 Zrotation Yrotation Xrotation
					JOINT RightArm
					{
						OFFSET -2.95373 1.39649 -0.27346
						CHANNELS 3 Zrotation Yrotation Xrotation
						JOINT RightForeArm
						{
							OFFSET -6.10670 -0.00000 -0.00000
							CHANNELS 3 Zrotation Yrotation Xrotation
							JOINT RightHand
							{
								OFFSET -3.63052 -0.00000 0.00000
								CHANNELS 3 Zrotation Yrotation Xrotation
								JOINT RightFingerBase
								{
									OFFSET 0 0 0
									CHANNELS 3 Zrotation Yrotation Xrotation
									JOINT RightHandIndex1
									{
										OFFSET -0.58385 -0.00000 0.00000
										CHANNELS 3 Zrotation Yrotation Xrotation
										End Site
										{
											OFFSET -0.47071 -0.00000 0.00000
										}
									}
								}
								JOINT RThumb
								{
									OFFSET 0 0 0
									CHANNELS 3 Zrotation Yrotation Xrotation
									End Site
									{
										OFFSET -0.47790 -0.00000 0.47790
									}
								}
							}
						}
					}
				}
			}
		}
	}
}
MOTION
Frames: 7
Frame Time: 0.033333
0.2207 18.4529 -0.0971 188.0100 -82.6188 -191.7160 0.0000 0.0000 0.0000 -9.6833 -8.3728 -8.1872 1.8169 8.4738 24.1628 0.1891 3.9811 -10.6650 0.2364 -3.1289 -8.6378 0.0000 0.0000 0.0000 14.2569 13.1749 5.1631 -4.1611 -12.3718 37.0602 -0.6972 -5.0824 -18.4303 -0.0049 0.4522 -1.2425 -1.6606 2.6736 6.8276 -2.2918 3.3127 1.1656 -1.7261 1.6313 -2.5784 -0.5606 4.8029 -11.1494 9.5286 4.0155 23.9050 3.7771 2.6523 9.1045 0.0000 0.0000 0.0000 -18.5298 -27.3579 -17.1761 38.2959 -47.0273 -17.1818 -0.0000 -0.0000 16.6971 38.2870 15.6705 12.0361 -7.1250 0.0000 -0.0000 10.5526 49.3543 1.1445 0.0000 0.0000 0.0000 -6.0505 25.1976 -85.9128 -18.5275 28.8273 -4.8009 0.0000 -0.0000 -35.2215 -33.4802 -7.8960 5.1916 7.1250 -0.0000 -0.0000 -5.7885 -39.3577 -0.8080
0.4902 18.3777 -0.3232 188.2910 -82.6058 -192.0770 0.0000 0.0000 0.0000 -8.5560 -8.8159 -9.2134 1.8984 8.6512 24.7103 0.1449 4.2049 -9.9765 0.2342 -3.1150 -8.5990 0.0000 0.0000 0.0000 15.6271 13.7211 7.2769 -3.9435 -12.0848 36.0328 -0.9064 -3.0121 -19.3134 -0.0217 0.9516 -2.6158 -0.3234 3.1548 6.8275 -2.4451 4.0502 0.9975 -2.7000 1.9899 -2.6352 -0.0751 5.3649 -11.4722 9.7706 4.6010 24.3787 3.8734 3.0081 9.3079 0.0000 -0.0000 0.0000 -18.2432 -27.8618 -18.2423 33.7062 -43.8659 -13.9091 -0.0000 -0.0000 16.1807 36.4658 16.8834 12.1139 -7.1250 0.0000 -0.0000 8.6891 50.4550 1.1759 0.0000 -0.0000 0.0000 -15.2999 28.9240 -87.8664 -20.2953 30.9964 -5.6826 0.0000 -0.0000 -34.7581 -33.8739 -7.7655 5.1829 7.1250 -0.0000 -0.0000 -6.1309 -39.2371 -0.8744
0.7894 18.3004 -0.5835 190.6260 -82.4621 -194.3620 0.0000 0.0000 0.0000 -6.9227 -9.7447 -10.0654 1.9329 8.7248 24.9383 0.1106 4.6573 -9.6738 0.1084 -2.1228 -5.8451 0.0000 0.0000 0.0000 17.5597 14.3706 9.1302 -3.5808 -11.5807 34.2642 -1.1895 -3.0596 -21.9115 -0.1790 2.7255 -7.5153 1.1059 3.5380 6.6190 -2.1141 4.6888 1.0619 -3.1887 2.3072 -2.3379 0.5027 5.4778 -11.7769 8.4809 4.9109 25.0939 3.4084 3.0807 9.6613 -0.0000 -0.0000 0.0000 -19.6443 -28.2764 -19.7054 30.5365 -41.3488 -11.7625 -0.0000 -0.0000 16.4203 37.1031 15.3780 11.3420 -7.1250 0.0000 -0.0000 9.3327 48.7805 0.8772 -0.0000 -0.0000 0.0000 -25.0083 32.5766 -84.9295 -22.7970 33.8661 -7.0248 0.0000 -0.0000 -31.6439 -33.8921 -6.4174 4.2940 7.1250 -0.0000 -0.0000 -6.1070 -37.6329 -1.1124
1.1154 18.2302 -0.8863 190.9600 -82.6482 -194.5260 0.0000 0.0000 0.0000 -5.4823 -9.8819 -11.0849 1.8251 8.4919 24.2183 0.0280 5.0864 -8.1083 0.1093 -2.1314 -5.8690 0.0000 0.0000 0.0000 18.9068 14.7278 10.0040 -3.1381 -10.9154 31.9950 -1.5585 -4.0208 -25.3215 -0.2872 3.4467 -9.5250 2.0058 3.6197 6.6121 -1.8474 4.8760 1.0509 -3.4280 2.3987 -2.2819 -0.4172 5.2578 -11.3839 8.8116 4.7682 24.7162 3.6281 2.9621 9.4124 0.0000 -0.0000 0.0000 -21.3435 -27.1020 -19.7898 29.7240 -40.6556 -11.2293 -0.0000 -0.0000 15.3554 38.0490 15.4155 11.7525 -7.1250 0.0000 -0.0000 10.2977 49.0008 1.0259 0.0000 -0.0000 0.0000 -34.5830 37.0154 -80.8237 -25.9849 37.1938 -8.8785 0.0000 -0.0000 -27.7555 -33.2361 -4.8005 3.1389 7.1250 -0.0000 -0.0000 -5.4939 -35.6688 -1.2645
1.4569 18.1771 -1.2289 191.8240 -82.7525 -195.2780 0.0000 0.0000 0.0000 -3.9556 -11.4887 -10.7129 1.5513 7.8611 22.2930 -0.0963 7.1525 -7.4855 0.0087 -0.6033 -1.6578 0.0000 0.0000 0.0000 20.2407 14.7444 10.1338 -2.8213 -10.4000 30.2819 -1.8864 -4.2163 -27.7349 -0.2217 3.0308 -8.3646 3.0136 3.7163 6.7108 -1.7465 5.0832 1.1090 -3.9035 2.4997 -2.1828 0.4168 4.8637 -11.6292 7.2952 4.3586 25.4106 2.9568 2.6861 9.8003 -0.0000 0.0000 0.0000 -22.7244 -26.3655 -20.3225 29.4089 -40.3813 -11.0246 -0.0000 -0.0000 15.5631 38.4812 16.0184 12.3719 -7.1250 0.0000 -0.0000 10.7692 49.8129 1.2911 -0.0000 0.0000 0.0000 -43.4063 42.0650 -75.9501 -29.8162 40.7353 -11.2895 0.0000 -0.0000 -23.1529 -32.2125 -4.9976 3.1415 7.1250 -0.0000 -0.0000 -4.6407 -35.8484 -1.0466
1.8174 18.1406 -1.5568 189.5480 -83.0863 -193.0650 0.0000 0.0000 0.0000 -3.2072 -13.8019 -9.5561 1.2502 7.0889 19.9790 -0.2193 9.1701 -7.5878 0.0116 0.6955 1.9114 0.0000 0.0000 0.0000 20.8017 14.7909 9.8092 -2.6525 -10.1100 29.3337 -2.2236 -3.0774 -29.4074 -0.0795 1.8185 -5.0043 3.6660 3.7826 6.9819 -1.5986 5.2275 1.2692 -4.1371 2.5717 -2.1102 -0.4534 3.9199 -11.2968 6.8587 3.3347 25.4218 2.8262 2.0742 9.7665 0.0000 -0.0000 0.0000 -24.3982 -25.7222 -20.2842 29.6707 -40.6094 -11.1946 -0.0000 -0.0000 15.2483 39.3856 16.0311 12.7744 -7.1250 0.0000 -0.0000 11.7138 50.0078 1.4637 0.0000 -0.0000 0.0000 -53.0079 48.3434 -72.6724 -33.5425 43.7429 -13.7957 0.0000 -0.0000 -17.9007 -33.3005 -3.6666 2.4055 7.1250 -0.0000 -0.0000 -5.5023 -34.3243 -1.4471
2.1732 18.1361 -1.8549 188.2950 -83.1654 -191.6620 0.0000 0.0000 0.0000 -2.3516 -15.8825 -9.0064 1.0829 6.6140 18.5766 -0.1353 9.7701 -11.3268 0.1627 2.5987 7.1635 0.0000 0.0000 0.0000 21.1258 14.6336 8.7388 -2.5375 -9.9057 28.6719 -2.3239 -1.8435 -29.5339 -0.0226 0.9702 -2.6669 4.6152 3.7881 6.9451 -1.3409 5.3041 1.4966 -4.3883 2.6187 -1.7841 -1.5407 2.8533 -10.5119 6.0444 2.3091 24.8944 2.5794 1.3977 9.4629 -0.0000 -0.0000 0.0000 -26.0413 -24.6779 -20.2036 30.5109 -41.3273 -11.7456 -0.0000 -0.0000 14.8974 39.7276 16.6308 13.3789 -7.1250 0.0000 -0.0000 12.1161 50.8092 1.7564 -0.0000 -0.0000 0.0000 -64.4688 55.9888 -72.8440 -36.4701 45.8338 -15.8588 0.0000 -0.0000 -14.1649 -32.8687 -2.8758 1.8568 7.1250 -0.0000 -0.0000 -5.1135 -33.3712 -1.4626
